# Blender v2.78 (sub 0) OBJ File: ''
# www.blender.org
mtllib asteroid1.mtl
o Asteroid1.001
v -0.326975 0.230494 -0.406873
v -0.404897 0.099073 -0.383917
v -0.507770 0.047779 -0.166188
v -0.546431 -0.195849 0.095425
v 0.150379 -0.367492 -0.163714
v 0.126669 -0.175113 -0.347031
v 0.078611 0.182931 0.346791
v 0.169115 -0.128752 0.248537
v 0.212180 -0.006726 0.162333
v 0.069360 0.371732 0.165556
v -0.109442 0.336048 0.376147
v -0.044278 0.478728 0.071475
v -0.057112 0.276187 -0.326055
v -0.000254 -0.521192 -0.030411
v 0.016201 -0.461388 -0.176336
v 0.062806 0.112661 -0.350415
v -0.190591 0.323123 0.383772
v -0.271414 0.426503 0.273280
v -0.510663 -0.023763 0.291237
v -0.131082 -0.298406 -0.325847
v -0.100666 -0.048200 -0.425767
v -0.293441 -0.489396 0.066109
v -0.364929 -0.307887 -0.232519
v -0.207436 -0.525490 -0.083753
v 0.184881 0.181719 0.020823
v -0.520842 0.179094 0.120512
v -0.288233 0.463760 0.173156
v 0.067393 -0.262313 0.268962
v -0.039705 0.010143 0.418567
v -0.164028 0.479813 0.187926
v -0.411451 0.231442 -0.226535
v -0.318122 -0.150473 -0.369169
v -0.225509 0.461947 -0.018316
v -0.222201 0.200842 -0.414932
v -0.247726 -0.028830 0.409131
v -0.219265 -0.525434 0.007259
vn 0.8875 0.2458 0.3898
vn 0.9471 -0.1258 0.2951
vn 0.9799 0.0459 0.1943
vn 0.5668 0.5848 0.5803
vn 0.4779 0.4414 0.7594
vn 0.4296 0.3696 0.8239
vn 0.5703 -0.7806 -0.2556
vn -0.1917 0.4267 0.8838
vn -0.2109 0.7372 0.6420
vn -0.5805 0.3380 0.7408
vn 0.1062 -0.3799 -0.9189
vn 0.0184 -0.3727 -0.9278
vn 0.0235 -0.3732 -0.9274
vn -0.7008 -0.6716 -0.2404
vn 0.8997 0.3245 0.2921
vn -0.7429 0.4347 0.5090
vn -0.7575 0.5197 0.3951
vn -0.7590 0.5582 0.3352
vn -0.9018 -0.0227 -0.4315
vn -0.9067 0.0336 -0.4205
vn -0.8496 -0.2551 -0.4615
vn 0.7961 -0.5350 0.2828
vn 0.5978 -0.0779 0.7978
vn 0.2973 0.1855 0.9366
vn 0.8545 0.3820 -0.3520
vn 0.7015 0.1475 -0.6972
vn 0.6507 0.3224 -0.6875
vn -0.7537 0.6419 -0.1408
vn -0.9666 -0.1000 -0.2360
vn -0.8285 -0.4752 -0.2962
vn -0.9113 -0.3909 0.1289
vn -0.0714 -0.3624 -0.9293
vn 0.8175 -0.3686 -0.4426
vn 0.2133 0.9757 0.0497
vn 0.4116 0.7884 0.4572
vn 0.3785 0.8045 0.4577
vn 0.0401 0.4684 0.8826
vn -0.0297 0.8641 0.5024
vn 0.2884 0.9132 0.2881
vn 0.1405 -0.7360 -0.6622
vn 0.0961 -0.6243 -0.7752
vn 0.8005 -0.3123 -0.5115
vn -0.8212 0.4194 -0.3869
vn -0.5724 0.2005 -0.7951
vn -0.4507 0.0887 -0.8883
vn -0.9977 0.0676 0.0080
vn -0.8917 0.3948 -0.2215
vn 0.0062 -0.2118 0.9773
vn -0.7471 -0.2950 -0.5957
vn -0.1944 -0.1251 -0.9729
vn -0.1847 -0.1019 -0.9775
vn -0.7518 -0.6278 -0.2016
vn -0.7840 -0.3241 0.5295
vn -0.4608 -0.5513 0.6956
vn 0.0021 -0.8246 -0.5658
vn 0.0648 0.3148 -0.9469
vn 0.0157 0.6221 -0.7828
vn 0.0500 0.8411 -0.5386
vn 0.2794 0.1147 -0.9533
vn 0.0617 0.9271 -0.3698
vn -0.8760 0.3505 -0.3313
vn -0.7372 0.4130 0.5347
vn -0.1844 -0.9245 0.3338
vn -0.0977 -0.9951 -0.0121
vn -0.1388 -0.9548 0.2628
vn -0.4035 0.1308 0.9056
vn 0.7030 -0.4514 0.5496
vn 0.7831 -0.5529 0.2846
vn 0.6719 -0.4182 0.6113
vn 0.5022 -0.2561 0.8260
vn -0.0369 -0.3005 0.9531
vn 0.0005 -0.6207 0.7841
vn -0.3540 -0.5358 0.7666
vn 0.1254 -0.7643 0.6326
vn 0.0349 -0.6961 0.7171
vn 0.7177 0.6108 -0.3344
vn 0.7566 0.6195 -0.2094
vn -0.6028 0.7448 -0.2863
vn 0.9874 0.1573 0.0190
vn 0.1133 -0.9238 -0.3658
vn 0.1226 -0.7700 0.6261
vn -0.1222 0.9913 -0.0494
vn -0.1621 0.9156 0.3679
vn -0.6522 0.7253 -0.2205
vn 0.3103 0.3587 -0.8804
vn 0.5123 0.4816 -0.7110
vn -0.2668 -0.6268 -0.7321
vn -0.2816 -0.5799 -0.7645
vn -0.2669 -0.6264 -0.7324
vn -0.2537 -0.6643 -0.7031
vn 0.0199 -0.9998 0.0032
usemtl None.001
s 1
f 7//1 8//2 9//3
f 10//4 11//5 7//6
f 5//7 14//7 15//7
f 17//8 18//9 19//10
f 6//11 20//12 21//13
f 22//14 23//14 24//14
f 25//15 10//15 7//15
f 26//16 18//17 27//18
f 3//19 2//20 23//21
f 14//22 5//22 28//22
f 29//23 8//23 7//23
f 11//5 29//24 7//6
f 25//25 6//26 16//27
f 26//28 27//28 31//28
f 3//29 23//30 4//31
f 32//32 21//13 20//12
f 5//33 9//3 8//2
f 12//34 11//35 10//36
f 11//37 30//38 18//9
f 12//34 30//39 11//35
f 15//40 20//41 6//42
f 31//43 1//44 2//45
f 4//31 26//46 3//29
f 31//47 3//47 26//47
f 29//48 11//37 17//8
f 23//49 2//49 32//49
f 32//50 2//45 21//51
f 22//52 4//31 23//30
f 19//53 4//31 22//54
f 24//55 20//41 15//40
f 34//56 1//57 13//58
f 16//27 6//26 21//59
f 1//57 33//60 13//58
f 3//19 31//61 2//20
f 12//34 33//60 30//39
f 11//37 18//9 17//8
f 26//46 4//31 19//53
f 18//17 26//16 19//62
f 1//57 34//56 21//59
f 2//45 1//44 21//51
f 5//33 6//42 9//3
f 5//33 15//40 6//42
f 22//63 24//64 36//65
f 17//66 19//66 35//66
f 28//67 5//68 8//69
f 8//69 29//70 28//67
f 29//48 35//71 28//72
f 19//53 22//54 35//73
f 14//74 28//72 22//75
f 13//76 12//76 25//76
f 12//77 10//77 25//77
f 1//78 31//78 33//78
f 34//56 16//27 21//59
f 6//42 25//79 9//3
f 12//34 13//58 33//60
f 15//40 14//80 24//55
f 14//81 22//63 36//65
f 25//79 7//1 9//3
f 33//82 27//82 30//82
f 27//83 18//9 30//38
f 33//84 31//84 27//84
f 22//75 28//72 35//71
f 16//27 34//85 13//86
f 23//87 32//88 20//89
f 20//89 24//90 23//87
f 24//64 14//91 36//65
f 13//86 25//25 16//27
f 17//8 35//71 29//48
