# Blender v2.78 (sub 0) OBJ File: ''
# www.blender.org
mtllib asteroid3.mtl
o Asteroid3
v -0.093797 -0.227700 0.596488
v -0.125948 -0.256164 0.548556
v 0.149956 -0.294910 0.271895
v -0.191544 0.646472 0.541531
v -0.328723 0.652830 0.312549
v -0.259194 0.584756 0.584075
v 0.343432 -0.010641 -0.422591
v -0.004779 0.340822 -0.365841
v -0.292736 0.490124 -0.044977
v 0.014141 0.576791 -0.075728
v 0.117543 -0.088266 -0.491688
v 0.002076 -0.133597 -0.453951
v -0.135299 0.301367 -0.341152
v 0.036755 -0.203116 0.568836
v -0.472742 0.138649 0.444240
v -0.414520 0.537708 0.447788
v 0.414225 0.511444 0.111538
v 0.424364 -0.019445 0.278508
v -0.527242 0.202580 0.042089
v -0.240852 -0.354325 0.194951
v 0.237774 -0.326728 0.069512
v 0.560162 -0.158835 -0.003602
v 0.533063 -0.230438 0.086417
v 0.539248 0.119956 -0.034764
v 0.442489 0.525837 -0.000911
v 0.490961 0.344857 -0.171697
v 0.277295 -0.131581 -0.411624
v -0.098844 -0.209629 -0.334039
v -0.581419 0.127720 0.167146
v -0.203161 -0.352235 0.076924
v 0.500891 -0.247788 0.033420
v -0.073692 0.719671 0.276882
v -0.106944 0.718059 0.402175
v 0.458211 0.485389 -0.093665
v -0.328249 0.540386 0.568914
v -0.519659 0.393758 0.197534
v -0.268329 -0.295660 0.296384
vn 0.2440 -0.8969 0.3689
vn -0.5144 0.7915 0.3301
vn -0.2730 0.7550 -0.5963
vn -0.3534 0.1287 -0.9266
vn 0.2471 -0.8952 0.3709
vn -0.6416 -0.3888 0.6612
vn -0.5276 0.7823 0.3312
vn -0.6945 -0.0329 -0.7188
vn 0.1086 -0.9737 0.2002
vn 0.6582 -0.2925 0.6937
vn 0.8825 -0.0353 -0.4690
vn -0.7810 -0.3253 -0.5331
vn 0.3010 -0.9452 0.1267
vn 0.9432 0.2029 0.2630
vn 0.7225 -0.4432 -0.5305
vn 0.0809 -0.8712 -0.4843
vn 0.4046 0.9067 0.1190
vn 0.1970 0.0551 0.9789
vn 0.5969 0.2511 0.7620
vn 0.1164 -0.9237 -0.3651
vn 0.9241 0.1102 0.3659
vn 0.9073 0.1418 0.3958
vn 0.6274 -0.6162 -0.4761
vn -0.8105 0.1131 0.5747
vn -0.7353 0.4449 -0.5113
vn 0.5375 0.1710 0.8258
vn 0.0495 -0.9474 -0.3162
vn 0.2247 -0.9093 -0.3503
vn -0.7607 -0.5287 -0.3766
vn -0.7170 -0.5021 0.4835
vn 0.9142 0.1180 0.3877
vn 0.2847 -0.9203 0.2682
vn 0.3342 -0.8570 0.3923
vn 0.9756 0.2188 0.0154
vn -0.8041 0.5945 -0.0041
vn 0.1738 0.3225 -0.9305
vn -0.4591 -0.1085 0.8817
vn -0.9395 0.1852 0.2882
vn -0.9246 0.1317 0.3574
vn -0.8036 -0.4922 0.3346
vn -0.8148 -0.5694 0.1086
vn 0.1686 0.9274 -0.3338
vn 0.1319 0.7648 -0.6306
vn -0.6655 0.6519 -0.3636
vn 0.1014 -0.7762 -0.6222
vn -0.9344 0.2463 -0.2574
vn -0.3317 0.7057 -0.6261
vn -0.2423 0.2088 -0.9475
vn -0.6938 0.3807 -0.6114
vn -0.5576 0.7376 0.3808
vn -0.1987 -0.0255 0.9797
vn 0.0578 -0.9983 0.0008
vn 0.7514 -0.6077 -0.2572
vn 0.1006 -0.9666 0.2357
vn 0.9619 0.0419 -0.2703
vn 0.3219 0.4531 -0.8313
vn 0.3678 -0.2815 -0.8863
vn -0.4192 -0.8305 0.3668
vn 0.1731 0.9132 -0.3689
vn -0.2846 0.8614 -0.4207
vn -0.7816 -0.5672 -0.2596
vn 0.4293 0.1440 0.8916
vn -0.3626 0.8999 0.2422
vn 0.4655 0.8556 0.2265
vn 0.9718 0.2262 0.0661
vn -0.2605 0.9638 -0.0567
vn -0.7192 -0.1236 -0.6837
vn 0.5627 0.5450 0.6216
vn 0.3088 0.5157 -0.7992
vn -0.2854 0.8614 -0.4201
usemtl None
s off
f 1//1 2//1 3//1
f 4//2 5//2 6//2
f 8//3 9//3 10//3
f 11//4 12//4 13//4
f 14//5 1//5 3//5
f 1//6 15//6 2//6
f 5//7 16//7 6//7
f 13//8 12//8 19//8
f 20//9 21//9 3//9
f 18//10 14//10 23//10
f 22//11 7//11 26//11
f 28//12 29//12 19//12
f 21//13 31//13 23//13
f 17//14 24//14 25//14
f 22//15 27//15 7//15
f 27//16 28//16 12//16
f 32//17 33//17 25//17
f 1//18 14//18 6//18
f 18//19 17//19 4//19
f 27//20 21//20 28//20
f 22//21 24//21 23//21
f 24//22 17//22 18//22
f 31//23 27//23 22//23
f 16//24 15//24 35//24
f 9//25 19//25 36//25
f 14//26 18//26 4//26
f 21//27 30//27 28//27
f 27//28 31//28 21//28
f 29//29 28//29 30//29
f 15//30 37//30 2//30
f 24//31 18//31 23//31
f 23//32 3//32 21//32
f 23//33 14//33 3//33
f 34//34 24//34 26//34
f 36//35 16//35 5//35
f 11//36 8//36 7//36
f 1//37 35//37 15//37
f 36//38 29//38 16//38
f 29//39 15//39 16//39
f 15//40 29//40 37//40
f 37//41 29//41 20//41
f 10//42 32//42 25//42
f 34//43 8//43 10//43
f 5//44 9//44 36//44
f 11//45 27//45 12//45
f 29//46 36//46 19//46
f 9//47 8//47 13//47
f 8//48 11//48 13//48
f 9//49 13//49 19//49
f 16//50 35//50 6//50
f 35//51 1//51 6//51
f 21//52 20//52 30//52
f 31//53 22//53 23//53
f 2//54 20//54 3//54
f 24//55 22//55 26//55
f 8//56 26//56 7//56
f 7//57 27//57 11//57
f 20//58 2//58 37//58
f 10//59 25//59 34//59
f 9//60 5//60 32//60
f 20//61 29//61 30//61
f 14//62 4//62 6//62
f 5//63 4//63 33//63
f 25//64 33//64 17//64
f 24//65 34//65 25//65
f 33//66 32//66 5//66
f 19//67 12//67 28//67
f 17//68 33//68 4//68
f 26//69 8//69 34//69
f 9//70 32//70 10//70
